<svg viewBox="0 0 1800 1800" xmlns="http://www.w3.org/2000/svg" fill-rule="evenodd" clip-rule="evenodd" stroke-linejoin="round" stroke-miterlimit="1.414"><path d="M1668 918.765c0 167.335-48.83 317.835-146.5 451.505-97.67 133.66-223.83 226.16-378.5 277.5-18 3.33-31.17 1-39.5-7-8.33-8-12.5-18-12.5-30v-211c0-64.67-17.33-112-52-142 38-4 72.17-10 102.5-18s61.67-21 94-39 59.33-40.17 81-66.5c21.67-26.34 39.33-61.34 53-105 13.67-43.672 20.5-93.84 20.5-150.505 0-80.667-26.33-149.334-79-206 24.67-60.667 22-128.667-8-204-18.67-6-45.67-2.334-81 11-35.33 13.333-66 28-92 44l-38 24c-62-17.334-126-26-192-26s-130 8.666-192 26c-10.667-7.334-24.833-16.334-42.5-27-17.667-10.667-45.5-23.5-83.5-38.5s-66.667-19.5-86-13.5c-29.333 75.333-31.667 143.333-7 204-52.667 56.666-79 125.333-79 206 0 56.666 6.833 106.666 20.5 150.005 13.667 43.33 31.167 78.33 52.5 105 21.333 26.66 48.167 49 80.5 67s63.667 31 94 39 64.5 14 102.5 18c-26.667 24-43 58.33-49 103-14 6.66-29 11.66-45 15-16 3.33-35 5-57 5s-43.833-7.17-65.5-21.5c-21.667-14.34-40.167-35.17-55.5-62.5-12.667-21.34-28.833-38.67-48.5-52-19.667-13.34-36.167-21.34-49.5-24l-20-3c-14 0-23.667 1.5-29 4.5-5.333 3-7 6.83-5 11.5 2 4.66 5 9.33 9 14 4 4.66 8.333 8.66 13 12l7 5c14.667 6.66 29.167 19.33 43.5 38 14.333 18.66 24.833 35.66 31.5 51l10 23c8.667 25.33 23.333 45.83 44 61.5 20.667 15.66 43 25.66 67 30 24 4.33 47.167 6.66 69.5 7 22.333.33 40.833-.84 55.5-3.5l23-4c0 25.33.167 55 .5 89 .333 34 .5 52 .5 54 0 12-4.333 22-13 30s-22 10.33-40 7c-154.667-51.34-280.833-143.84-378.5-277.5C180.833 1236.6 132 1086.1 132 918.765c0-139.334 34.333-267.834 103-385.5 68.667-117.667 161.833-210.834 279.5-279.5 117.667-68.667 246.167-103 385.5-103 139.33 0 267.83 34.333 385.5 103 117.67 68.666 210.83 161.833 279.5 279.5 68.67 117.666 103 246.166 103 385.5z" fill="#fff"/></svg>