<svg viewBox="0 0 1800 1800" xmlns="http://www.w3.org/2000/svg" fill-rule="evenodd" clip-rule="evenodd" stroke-linejoin="round" stroke-miterlimit="1.414"><path d="M1688 412c-44.67 65.333-98.67 121-162 167 .67 9.333 1 23.333 1 42 0 86.667-12.67 173.167-38 259.5s-63.83 169.17-115.5 248.5c-51.67 79.33-113.17 149.5-184.5 210.5s-157.33 109.67-258 146c-100.667 36.33-208.333 54.5-323 54.5-180.667 0-346-48.33-496-145 23.333 2.67 49.333 4 78 4 150 0 283.667-46 401-138-70-1.33-132.667-22.83-188-64.5s-93.333-94.83-114-159.5c22 3.33 42.333 5 61 5 28.667 0 57-3.67 85-11-74.667-15.33-136.5-52.5-185.5-111.5S176 792 176 714v-4c45.333 25.333 94 39 146 41-44-29.333-79-67.667-105-115s-39-98.667-39-154c0-58.667 14.667-113 44-163 80.667 99.333 178.833 178.833 294.5 238.5S756 650.333 888 657c-5.333-25.333-8-50-8-74 0-89.333 31.5-165.5 94.5-228.5S1113.67 260 1203 260c93.33 0 172 34 236 102 72.67-14 141-40 205-78-24.67 76.667-72 136-142 178 62-6.667 124-23.333 186-50z" fill="#fff"/></svg>